# xmcd
#
# Track frame offsets:
#	150
#	13228
#	29850
#	46278
#	64693
#	75943
#	87973
#	100818
#	112438
#	129245
#
# Disc length: 1954 seconds
#
# Revision: 2
# Processed by: cddbd v1.4PL0 Copyright (c) Steve Scherf et al.
# Submitted via: CDmax 1.8
#
DISCID=8107a00a
DTITLE=Joy Lynn White - Wild Love
DYEAR=1994
DGENRE=Country
TTITLE0=Tonight The Heartache's On Me
TTITLE1=Bad Loser
TTITLE2=Too Gone To Care
TTITLE3=Why Can't I Stop Loving You
TTITLE4=Whiskey, Lies And Tears
TTITLE5=Wild Love
TTITLE6=Burning Memories
TTITLE7=On And On And On
TTITLE8=You Were Right From Your Side
TTITLE9=I am Just A Rebel
EXTD=
EXTT0=
EXTT1=
EXTT2=
EXTT3=
EXTT4=
EXTT5=
EXTT6=
EXTT7=
EXTT8=
EXTT9=
PLAYORDER=
